<?xml version="1.0" encoding="UTF-8"?>
<svg xmlns="http://www.w3.org/2000/svg" xmlns:xlink="http://www.w3.org/1999/xlink" width="50px" height="60px" viewBox="0 0 56 56" version="1.1">
<g id="surface1">
<rect x="0" y="0" width="56" height="56" style="fill:rgb(100%,100%,100%);fill-opacity:1;stroke:none;"/>
<path style=" stroke:none;fill-rule:evenodd;fill:rgb(7.843137%,27.058824%,23.921569%);fill-opacity:1;" d="M 6.714844 27.789062 C 7.074219 27.457031 7.480469 26.90625 7.480469 26.203125 C 7.480469 24.988281 6.761719 23.695312 4.871094 23.695312 L 0.824219 23.695312 L 0.824219 32.398438 L 5.394531 32.398438 C 6.808594 32.398438 7.816406 31.109375 7.816406 29.960938 C 7.816406 28.980469 7.3125 28.210938 6.714844 27.789062 Z M 2.835938 25.585938 L 4.535156 25.585938 C 4.917969 25.585938 5.203125 25.992188 5.203125 26.402344 C 5.203125 26.832031 4.890625 27.210938 4.367188 27.210938 L 2.835938 27.210938 Z M 4.441406 30.632812 L 2.835938 30.632812 L 2.835938 28.855469 L 4.511719 28.855469 C 5.109375 28.855469 5.441406 29.339844 5.441406 29.742188 C 5.441406 30.148438 5.15625 30.632812 4.441406 30.632812 Z M 12.335938 23.523438 C 10.378906 23.523438 8.316406 25.109375 8.316406 28 C 8.316406 30.652344 10.085938 32.542969 12.335938 32.542969 C 14.589844 32.542969 16.363281 30.652344 16.363281 28 C 16.363281 25.109375 14.304688 23.523438 12.335938 23.523438 Z M 12.335938 30.558594 C 11.1875 30.558594 10.332031 29.359375 10.332031 27.933594 C 10.332031 26.542969 11.453125 25.539062 12.335938 25.539062 C 13.226562 25.539062 14.351562 26.542969 14.351562 27.933594 C 14.351562 29.359375 13.488281 30.558594 12.335938 30.558594 Z M 21.53125 27.144531 C 20.105469 26.925781 19.261719 26.734375 19.261719 26.089844 C 19.261719 25.605469 19.519531 25.300781 20.164062 25.300781 C 20.789062 25.300781 21.578125 25.632812 22.082031 25.996094 L 23.261719 24.605469 C 22.492188 23.933594 20.914062 23.410156 20.335938 23.410156 C 18.300781 23.410156 17.03125 24.628906 17.03125 26.207031 C 17.03125 27.835938 18.144531 28.59375 19.261719 28.761719 C 20.503906 28.953125 21.390625 29.21875 21.390625 29.84375 C 21.390625 30.339844 20.867188 30.605469 20.289062 30.605469 C 19.355469 30.605469 18.683594 30.148438 18.113281 29.550781 C 17.511719 30.148438 16.773438 30.9375 16.773438 30.9375 C 17.484375 31.78125 18.417969 32.523438 20.117188 32.523438 C 22.417969 32.523438 23.640625 30.890625 23.640625 29.722656 C 23.640625 28.257812 22.632812 27.304688 21.53125 27.144531 Z M 28.347656 25.539062 C 29.011719 25.539062 29.332031 25.898438 29.902344 26.542969 L 31.554688 25.414062 C 30.742188 24.199219 29.742188 23.457031 28.230469 23.457031 C 26.082031 23.457031 24.285156 25.441406 24.285156 28.019531 C 24.285156 30.605469 26.082031 32.589844 28.230469 32.589844 C 29.742188 32.589844 30.742188 31.847656 31.554688 30.632812 L 29.902344 29.503906 C 29.332031 30.148438 29.011719 30.511719 28.347656 30.511719 C 27.246094 30.511719 26.367188 29.578125 26.367188 28.019531 C 26.367188 26.46875 27.246094 25.539062 28.347656 25.539062 Z M 37.207031 26.734375 L 34.578125 26.734375 L 34.578125 23.695312 L 32.441406 23.695312 L 32.441406 32.398438 L 34.578125 32.398438 L 34.578125 28.933594 L 37.207031 28.933594 L 37.207031 32.398438 L 39.335938 32.398438 L 39.335938 23.695312 L 37.207031 23.695312 Z M 53.144531 25.90625 C 52.90625 25.640625 52.625 25.417969 52.3125 25.246094 L 52.3125 26.78125 L 49.128906 26.78125 L 49.128906 25.246094 C 48.820312 25.414062 48.542969 25.636719 48.308594 25.898438 C 47.769531 26.496094 47.457031 27.277344 47.457031 28.09375 C 47.457031 28.910156 47.769531 29.699219 48.308594 30.300781 C 48.539062 30.566406 48.820312 30.789062 49.128906 30.957031 L 49.128906 29.375 L 52.3125 29.375 L 52.3125 30.957031 C 52.625 30.789062 52.90625 30.566406 53.144531 30.300781 C 53.679688 29.699219 53.992188 28.910156 53.992188 28.09375 C 53.992188 27.277344 53.679688 26.496094 53.144531 25.90625 Z M 48.308594 29.589844 C 48.027344 29.140625 47.878906 28.625 47.878906 28.09375 C 47.878906 27.5625 48.027344 27.042969 48.308594 26.59375 C 48.425781 26.402344 48.5625 26.226562 48.722656 26.070312 L 48.734375 30.136719 C 48.574219 29.972656 48.429688 29.789062 48.308594 29.589844 Z M 52.3125 28.945312 L 49.128906 28.945312 L 49.128906 27.226562 L 52.3125 27.226562 Z M 52.714844 30.136719 L 52.722656 26.070312 C 52.882812 26.222656 53.027344 26.398438 53.144531 26.59375 C 53.421875 27.042969 53.570312 27.5625 53.570312 28.09375 C 53.570312 28.617188 53.414062 29.140625 53.144531 29.589844 C 53.019531 29.789062 52.878906 29.972656 52.714844 30.136719 Z M 52.714844 30.136719 "/>
<path style=" stroke:none;fill-rule:evenodd;fill:rgb(7.843137%,27.058824%,23.921569%);fill-opacity:1;" d="M 53.144531 24.367188 C 52.425781 23.90625 51.589844 23.660156 50.734375 23.660156 C 49.835938 23.660156 49.007812 23.925781 48.308594 24.382812 C 47.097656 25.175781 46.292969 26.542969 46.292969 28.09375 C 46.292969 29.644531 47.097656 31.011719 48.308594 31.808594 C 49.007812 32.265625 49.839844 32.535156 50.734375 32.535156 C 51.621094 32.535156 52.449219 32.269531 53.144531 31.820312 C 54.367188 31.027344 55.175781 29.652344 55.175781 28.09375 C 55.175781 26.539062 54.367188 25.164062 53.144531 24.367188 Z M 53.144531 31.277344 C 52.449219 31.804688 51.605469 32.089844 50.734375 32.085938 C 49.859375 32.089844 49.003906 31.800781 48.308594 31.265625 C 47.355469 30.53125 46.738281 29.378906 46.738281 28.09375 C 46.738281 26.808594 47.355469 25.660156 48.308594 24.933594 C 49 24.394531 49.855469 24.101562 50.734375 24.101562 C 51.640625 24.101562 52.46875 24.410156 53.144531 24.914062 C 54.109375 25.648438 54.726562 26.804688 54.726562 28.09375 C 54.726562 29.386719 54.109375 30.542969 53.144531 31.277344 Z M 53.144531 31.277344 "/>
</g>
</svg>
