<?xml version="1.0" encoding="UTF-8"?>
<svg xmlns="http://www.w3.org/2000/svg" xmlns:xlink="http://www.w3.org/1999/xlink" width="100px" height="15px" viewBox="0 0 178 50" version="1.1">
<g id="surface1">
<path  style=" stroke:none;fill-rule:nonzero;fill:rgb(7.843137%,27.058824%,23.921569%);fill-opacity:1;" d="M 1.320312 0.433594 L 0.890625 0.847656 L 0.890625 20.757812 C 0.890625 34.554688 0.941406 40.945312 1.078125 41.585938 C 1.472656 43.539062 2.492188 44.597656 4.421875 45.101562 C 5.933594 45.496094 29.238281 45.496094 30.769531 45.101562 C 32.234375 44.71875 33.078125 44.078125 33.699219 42.867188 L 34.214844 41.847656 L 34.335938 35.335938 C 34.402344 31.753906 34.402344 26.332031 34.335938 23.289062 L 34.199219 17.726562 L 33.714844 16.742188 C 33.199219 15.648438 32.527344 15.0625 31.355469 14.597656 C 30.683594 14.335938 29.566406 14.28125 21.160156 14.195312 L 11.707031 14.113281 L 11.378906 13.695312 C 11.070312 13.3125 11.050781 12.933594 11.050781 7.0625 L 11.050781 0.847656 L 10.621094 0.433594 L 10.207031 0 L 1.734375 0 Z M 23.8125 20.585938 L 24.226562 20.914062 L 24.226562 29.761719 C 24.226562 38.003906 24.210938 38.609375 23.914062 38.902344 C 23.65625 39.179688 23.191406 39.230469 20.503906 39.300781 C 18.800781 39.351562 16.097656 39.351562 14.480469 39.300781 C 11.828125 39.210938 11.519531 39.179688 11.292969 38.882812 C 11.085938 38.589844 11.050781 37.066406 11.050781 29.832031 L 11.050781 21.105469 L 11.484375 20.6875 L 11.898438 20.257812 L 17.648438 20.257812 C 23.074219 20.257812 23.433594 20.273438 23.8125 20.585938 Z M 23.8125 20.585938 "/>
<path style=" stroke:none;fill-rule:nonzero;fill:rgb(7.843137%,27.058824%,23.921569%);fill-opacity:1;" d="M 40.210938 14.402344 C 40 14.507812 39.777344 14.714844 39.691406 14.871094 C 39.535156 15.199219 39.398438 42.433594 39.554688 43.734375 C 39.742188 45.34375 39.503906 45.273438 44.617188 45.273438 C 47.71875 45.273438 49.148438 45.222656 49.285156 45.082031 C 49.386719 44.976562 49.5625 44.582031 49.644531 44.21875 C 49.714844 43.835938 49.800781 38.417969 49.800781 32.167969 L 49.800781 20.792969 L 50.179688 20.53125 C 50.714844 20.152344 56.105469 20.132812 56.605469 20.496094 C 56.828125 20.652344 56.96875 21.070312 57.054688 21.832031 C 57.257812 23.597656 57.15625 23.582031 62.167969 23.511719 L 66.371094 23.457031 L 66.796875 22.957031 C 67.230469 22.453125 67.230469 22.417969 67.160156 19.753906 C 67.113281 17.417969 67.042969 16.96875 66.734375 16.359375 C 66.25 15.445312 65.714844 14.976562 64.785156 14.597656 C 64.078125 14.316406 63.046875 14.28125 52.296875 14.246094 C 44.167969 14.230469 40.46875 14.265625 40.210938 14.402344 Z M 40.210938 14.402344 "/>
<path style=" stroke:none;fill-rule:nonzero;fill:rgb(7.843137%,27.058824%,23.921569%);fill-opacity:1;" d="M 73.242188 14.457031 C 71.347656 14.890625 70.367188 15.839844 69.863281 17.746094 C 69.640625 18.628906 69.609375 20.378906 69.609375 29.726562 C 69.609375 37.03125 69.675781 40.964844 69.796875 41.585938 C 70.191406 43.539062 71.210938 44.597656 73.171875 45.101562 C 74.085938 45.34375 75.773438 45.363281 86.347656 45.328125 C 95.355469 45.273438 98.609375 45.203125 99.074219 45.046875 C 99.972656 44.738281 100.796875 44.148438 101.246094 43.472656 C 102.125 42.15625 102.175781 41.707031 102.257812 32.808594 C 102.3125 28.238281 102.292969 22.972656 102.210938 21.121094 C 102.070312 18.039062 102.019531 17.660156 101.605469 16.777344 C 101.125 15.71875 100.417969 15.082031 99.214844 14.597656 C 98.523438 14.316406 97.4375 14.28125 86.398438 14.246094 C 76.5625 14.230469 74.136719 14.265625 73.242188 14.457031 Z M 91.722656 20.636719 C 92.238281 21.347656 92.238281 38.210938 91.722656 38.917969 C 91.53125 39.179688 91.101562 39.230469 88.636719 39.300781 C 87.054688 39.351562 84.523438 39.351562 83.007812 39.300781 C 80.628906 39.230469 80.230469 39.179688 80.027344 38.902344 C 79.871094 38.679688 79.769531 37.484375 79.683594 34.835938 C 79.542969 30.78125 79.664062 21.414062 79.871094 20.898438 C 79.941406 20.722656 80.148438 20.496094 80.355469 20.429688 C 80.5625 20.34375 83.144531 20.292969 86.109375 20.308594 C 91 20.34375 91.53125 20.378906 91.722656 20.636719 Z M 91.722656 20.636719 "/>
<path style=" stroke:none;fill-rule:nonzero;fill:rgb(7.843137%,27.058824%,23.921569%);fill-opacity:1;" d="M 110.769531 14.4375 C 109.511719 14.714844 108.839844 15.097656 108.222656 15.859375 C 107.378906 16.898438 107.132812 18.160156 107.03125 22.054688 C 106.875 27.769531 107.289062 30.140625 108.648438 31.335938 C 109.941406 32.476562 109.617188 32.445312 119.417969 32.546875 C 129.953125 32.652344 129.007812 32.429688 129.160156 34.9375 C 129.28125 37.101562 129.09375 38.382812 128.59375 38.882812 L 128.179688 39.300781 L 118.15625 39.300781 L 117.746094 38.867188 C 117.417969 38.558594 117.3125 38.261719 117.3125 37.742188 C 117.3125 37.015625 117.074219 36.375 116.730469 36.148438 C 116.625 36.082031 114.625 36.011719 112.285156 36.011719 C 106.875 36.011719 107.324219 35.71875 107.324219 39.371094 C 107.324219 40.894531 107.410156 42.261719 107.511719 42.605469 C 107.808594 43.472656 108.460938 44.285156 109.183594 44.648438 C 110.527344 45.34375 111.40625 45.378906 123.597656 45.328125 C 134.296875 45.273438 135.378906 45.238281 136.070312 44.960938 C 137.277344 44.492188 137.980469 43.835938 138.476562 42.78125 L 138.925781 41.8125 L 138.980469 36.441406 C 139.03125 31.839844 138.996094 30.921875 138.757812 30.003906 C 138.359375 28.550781 137.445312 27.511719 136.121094 26.992188 C 135.15625 26.613281 134.933594 26.59375 126.441406 26.488281 C 116.847656 26.367188 117.125 26.402344 116.78125 25.277344 C 116.675781 24.929688 116.625 23.820312 116.660156 22.800781 C 116.730469 20.308594 116.625 20.378906 119.949219 20.222656 C 121.378906 20.152344 123.875 20.152344 125.457031 20.203125 C 128.9375 20.328125 128.972656 20.34375 129.144531 21.953125 C 129.300781 23.582031 129.214844 23.546875 133.953125 23.546875 C 138.996094 23.546875 138.738281 23.683594 138.808594 21.015625 C 138.875 19.113281 138.652344 17.417969 138.222656 16.601562 C 137.859375 15.875 136.949219 15.046875 136.085938 14.648438 C 135.328125 14.28125 135.089844 14.28125 123.515625 14.246094 C 114.660156 14.230469 111.476562 14.265625 110.769531 14.4375 Z M 110.769531 14.4375 "/>
<path style=" stroke:none;fill-rule:nonzero;fill:rgb(7.843137%,27.058824%,23.921569%);fill-opacity:1;" d="M 147.453125 14.4375 C 145.746094 14.820312 144.851562 15.53125 144.144531 17.054688 L 143.75 17.917969 L 143.75 29.691406 C 143.75 40.738281 143.765625 41.519531 144.074219 42.398438 C 144.488281 43.59375 145.421875 44.527344 146.609375 44.945312 C 147.484375 45.257812 148.277344 45.273438 160.195312 45.273438 C 174.492188 45.273438 173.972656 45.328125 175.335938 43.960938 C 176.316406 42.972656 176.574219 42.054688 176.679688 39.265625 C 176.78125 36.910156 176.78125 36.910156 176.335938 36.460938 L 175.886719 36.011719 L 171.769531 36.011719 C 166.84375 36.011719 166.894531 35.992188 166.777344 37.726562 C 166.65625 39.371094 166.949219 39.300781 160.316406 39.300781 L 154.652344 39.300781 L 154.152344 38.796875 L 153.652344 38.296875 L 153.652344 35.871094 C 153.652344 33.65625 153.6875 33.449219 154.015625 33.136719 C 154.359375 32.828125 154.859375 32.808594 165.019531 32.722656 C 175.164062 32.632812 175.679688 32.617188 176.023438 32.308594 C 176.214844 32.132812 176.457031 31.699219 176.558594 31.355469 C 176.800781 30.488281 176.78125 19.5625 176.542969 18.265625 C 176.128906 15.964844 174.976562 14.800781 172.683594 14.386719 C 171.203125 14.113281 148.726562 14.164062 147.453125 14.4375 Z M 166.929688 20.585938 C 167.328125 20.914062 167.34375 21 167.34375 23.441406 C 167.34375 25.832031 167.328125 25.988281 166.949219 26.351562 L 166.550781 26.746094 L 154.308594 26.746094 L 153.980469 26.332031 C 153.6875 25.988281 153.652344 25.640625 153.652344 23.476562 C 153.652344 20.980469 153.742188 20.585938 154.34375 20.378906 C 154.480469 20.328125 157.285156 20.273438 160.558594 20.273438 C 166.191406 20.257812 166.550781 20.273438 166.929688 20.585938 Z M 166.929688 20.585938 "/>
</g>
</svg>
